<svg width="24" height="24" viewBox="0 0 24 24" fill="none" xmlns="http://www.w3.org/2000/svg">
<path d="M22.5 11.3487V13.2792H15.6222V11.3487H22.5ZM20.1568 8.81029V15.8911H17.986V8.81029H20.1568Z" fill="#9C9C9C"/>
<path d="M12.9759 7H13.348V8.77021H13.224C12.7783 8.77021 12.3602 8.83033 11.9697 8.95057C11.5838 9.07081 11.2438 9.2534 10.9498 9.49833C10.6603 9.73881 10.4329 10.0439 10.2675 10.4135C10.1067 10.7831 10.0263 11.2173 10.0263 11.7161V13.4195C10.0263 13.7312 10.0539 14.0029 10.109 14.2345C10.1641 14.466 10.2468 14.6575 10.3571 14.809C10.4674 14.9604 10.6029 15.0739 10.7637 15.1496C10.9291 15.2253 11.1198 15.2632 11.3357 15.2632C11.5149 15.2632 11.6803 15.2231 11.8319 15.143C11.9835 15.0628 12.1144 14.9492 12.2247 14.8023C12.3396 14.6553 12.4269 14.4839 12.4866 14.2879C12.5463 14.092 12.5762 13.8782 12.5762 13.6466C12.5762 13.3972 12.544 13.1723 12.4797 12.9719C12.4154 12.7715 12.3235 12.6023 12.204 12.4643C12.0892 12.3218 11.949 12.2149 11.7837 12.1436C11.6228 12.0679 11.446 12.0301 11.253 12.0301C10.959 12.0301 10.7086 12.0946 10.5018 12.2238C10.2997 12.3485 10.1458 12.5088 10.0401 12.7047C9.93901 12.9007 9.88848 13.0989 9.88848 13.2993L9.33026 12.7515C9.32107 12.4843 9.37391 12.2082 9.48877 11.9232C9.60363 11.6382 9.77592 11.3732 10.0056 11.1283C10.2354 10.8833 10.5225 10.6851 10.8671 10.5337C11.2117 10.3823 11.6114 10.3066 12.0662 10.3066C12.5256 10.3066 12.9299 10.3912 13.2791 10.5605C13.6329 10.7297 13.9292 10.9657 14.1681 11.2685C14.4116 11.5714 14.5954 11.9254 14.7194 12.3307C14.8435 12.7359 14.9055 13.1746 14.9055 13.6466C14.9055 14.1231 14.8182 14.5662 14.6436 14.976C14.4737 15.3812 14.2324 15.7352 13.92 16.0381C13.6076 16.3409 13.2378 16.5769 12.8105 16.7462C12.3832 16.9154 11.9123 17 11.3977 17C10.8694 17 10.3801 16.9132 9.92983 16.7395C9.48417 16.5613 9.09365 16.3053 8.75826 15.9713C8.42747 15.6328 8.16789 15.2209 7.97952 14.7355C7.79574 14.2501 7.70386 13.7001 7.70386 13.0855V12.2639C7.70386 11.4311 7.84399 10.6896 8.12424 10.0394C8.40909 9.38922 8.79502 8.83923 9.28202 8.38945C9.77362 7.9352 10.3364 7.59007 10.9704 7.35404C11.6045 7.11801 12.273 7 12.9759 7Z" fill="#9C9C9C"/>
<path d="M6.11044 7.14028V16.8664H3.78799V9.67869L1.5 10.3267V8.61657L5.89681 7.14028H6.11044Z" fill="#9C9C9C"/>
</svg>
